<?xml version="1.0" encoding="UTF-8"?>
<!DOCTYPE svg PUBLIC "-//W3C//DTD SVG 1.1//EN" "http://www.w3.org/Graphics/SVG/1.1/DTD/svg11.dtd">
<svg xmlns="http://www.w3.org/2000/svg" version="1.1" width="64px" height="64px" style="shape-rendering:geometricPrecision; text-rendering:geometricPrecision; image-rendering:optimizeQuality; fill-rule:evenodd; clip-rule:evenodd" xmlns:xlink="http://www.w3.org/1999/xlink">
<g><path style="opacity:1" fill="#05cdd0" d="M 38.5,5.5 C 39.1076,8.63442 40.7742,9.30109 43.5,7.5C 44.8069,8.80163 44.8069,10.135 43.5,11.5C 44.7515,12.6311 45.7515,13.9644 46.5,15.5C 45.7515,17.0356 44.7515,18.3689 43.5,19.5C 44.1272,20.4168 44.4606,21.4168 44.5,22.5C 44.5,22.8333 44.5,23.1667 44.5,23.5C 43.0695,23.5792 41.7362,23.2458 40.5,22.5C 39.0815,23.0047 38.4148,24.0047 38.5,25.5C 35.5127,24.7422 32.5127,23.9089 29.5,23C 28.7192,20.3813 27.7192,17.8813 26.5,15.5C 28.0461,13.1175 28.7128,10.4509 28.5,7.5C 31.9827,7.3094 35.3161,6.64273 38.5,5.5 Z"/></g>
<g><path style="opacity:0.944" fill="#269ec3" d="M 38.5,5.5 C 40.698,5.12012 42.3646,5.78679 43.5,7.5C 40.7742,9.30109 39.1076,8.63442 38.5,5.5 Z"/></g>
<g><path style="opacity:0.941" fill="#289ac2" d="M 43.5,7.5 C 45.1667,7.5 46.8333,7.5 48.5,7.5C 48.2872,10.4509 48.9539,13.1175 50.5,15.5C 49.8262,17.0245 48.8262,18.3578 47.5,19.5C 48.1272,20.4168 48.4606,21.4168 48.5,22.5C 47.1667,22.5 45.8333,22.5 44.5,22.5C 44.4606,21.4168 44.1272,20.4168 43.5,19.5C 44.7515,18.3689 45.7515,17.0356 46.5,15.5C 45.7515,13.9644 44.7515,12.6311 43.5,11.5C 44.8069,10.135 44.8069,8.80163 43.5,7.5 Z"/></g>
<g><path style="opacity:0.956" fill="#2d9abd" d="M 34.5,12.5 C 35.8333,12.5 37.1667,12.5 38.5,12.5C 40.1952,17.1219 38.6952,18.7886 34,17.5C 33.3603,15.735 33.5269,14.0683 34.5,12.5 Z"/></g>
<g><path style="opacity:1" fill="#565b6e" d="M 26.5,15.5 C 27.7192,17.8813 28.7192,20.3813 29.5,23C 32.5127,23.9089 35.5127,24.7422 38.5,25.5C 38.5603,28.021 37.8936,30.3543 36.5,32.5C 37.7431,34.6907 38.5764,37.0241 39,39.5C 42.0648,40.7235 45.2314,41.7235 48.5,42.5C 50.4547,42.2755 52.1213,41.6089 53.5,40.5C 54.5,40.5 55.5,40.5 56.5,40.5C 56.5,42.1667 56.5,43.8333 56.5,45.5C 38.5,45.5 20.5,45.5 2.5,45.5C 2.33353,35.8276 2.5002,26.1609 3,16.5C 10.747,15.5183 18.5803,15.185 26.5,15.5 Z"/></g>
<g><path style="opacity:0.957" fill="#4a4455" d="M 50.5,15.5 C 52.4672,15.2606 54.3005,15.5939 56,16.5C 56.4974,19.146 56.6641,21.8127 56.5,24.5C 55.5,24.5 54.5,24.5 53.5,24.5C 52.2209,23.032 50.5542,22.3653 48.5,22.5C 48.4606,21.4168 48.1272,20.4168 47.5,19.5C 48.8262,18.3578 49.8262,17.0245 50.5,15.5 Z"/></g>
<g><path style="opacity:1" fill="#f7668c" d="M 44.5,22.5 C 45.8333,22.5 47.1667,22.5 48.5,22.5C 50.5542,22.3653 52.2209,23.032 53.5,24.5C 54.8069,25.8016 54.8069,27.135 53.5,28.5C 54.7515,29.6311 55.7515,30.9644 56.5,32.5C 55.7515,34.0356 54.7515,35.3689 53.5,36.5C 54.8069,37.865 54.8069,39.1984 53.5,40.5C 52.1213,41.6089 50.4547,42.2755 48.5,42.5C 45.2314,41.7235 42.0648,40.7235 39,39.5C 38.5764,37.0241 37.7431,34.6907 36.5,32.5C 37.8936,30.3543 38.5603,28.021 38.5,25.5C 40.6264,24.9518 42.6264,24.2852 44.5,23.5C 44.5,23.1667 44.5,22.8333 44.5,22.5 Z"/></g>
<g><path style="opacity:1" fill="#4093b4" d="M 44.5,23.5 C 42.6264,24.2852 40.6264,24.9518 38.5,25.5C 38.4148,24.0047 39.0815,23.0047 40.5,22.5C 41.7362,23.2458 43.0695,23.5792 44.5,23.5 Z"/></g>
<g><path style="opacity:1" fill="#c5d3de" d="M 11.5,24.5 C 12.5,24.5 13.5,24.5 14.5,24.5C 14.415,26.9288 13.415,28.9288 11.5,30.5C 13.415,32.0712 14.415,34.0712 14.5,36.5C 6.588,34.1855 5.588,30.1855 11.5,24.5 Z"/></g>
<g><path style="opacity:1" fill="#cddce7" d="M 21.5,24.5 C 22.5862,24.62 23.2528,25.2867 23.5,26.5C 22.5813,30.2878 20.9146,33.6211 18.5,36.5C 17.8158,32.1935 18.8158,28.1935 21.5,24.5 Z"/></g>
<g><path style="opacity:1" fill="#c5d3de" d="M 26.5,24.5 C 34.3268,26.6415 35.3268,30.4748 29.5,36C 28.552,36.4828 27.552,36.6495 26.5,36.5C 26.585,34.0712 27.585,32.0712 29.5,30.5C 27.585,28.9288 26.585,26.9288 26.5,24.5 Z"/></g>
<g><path style="opacity:0.869" fill="#e64378" d="M 53.5,24.5 C 54.5,24.5 55.5,24.5 56.5,24.5C 58.2027,26.8196 59.536,29.4863 60.5,32.5C 59.536,35.5137 58.2027,38.1804 56.5,40.5C 55.5,40.5 54.5,40.5 53.5,40.5C 54.8069,39.1984 54.8069,37.865 53.5,36.5C 54.7515,35.3689 55.7515,34.0356 56.5,32.5C 55.7515,30.9644 54.7515,29.6311 53.5,28.5C 54.8069,27.135 54.8069,25.8016 53.5,24.5 Z"/></g>
<g><path style="opacity:1" fill="#695870" d="M 47.5,31.5 C 49.337,31.6395 49.6704,32.3061 48.5,33.5C 47.7025,33.0431 47.3691,32.3764 47.5,31.5 Z"/></g>
<g><path style="opacity:1" fill="#cfe0ec" d="M 2.5,45.5 C 20.5,45.5 38.5,45.5 56.5,45.5C 56.7135,47.1439 56.3802,48.6439 55.5,50C 47.8406,50.4997 40.1739,50.6664 32.5,50.5C 32.5,51.8333 32.5,53.1667 32.5,54.5C 34.1667,54.5 35.8333,54.5 37.5,54.5C 37.5,55.5 37.5,56.5 37.5,57.5C 30.8333,57.5 24.1667,57.5 17.5,57.5C 17.5,56.5 17.5,55.5 17.5,54.5C 19.5,54.5 21.5,54.5 23.5,54.5C 23.5,53.1667 23.5,51.8333 23.5,50.5C 16.825,50.6663 10.1583,50.4996 3.5,50C 2.61983,48.6439 2.28649,47.1439 2.5,45.5 Z"/></g>
</svg>
