<?xml version="1.0" encoding="UTF-8"?>
<!DOCTYPE svg PUBLIC "-//W3C//DTD SVG 1.1//EN" "http://www.w3.org/Graphics/SVG/1.1/DTD/svg11.dtd">
<svg xmlns="http://www.w3.org/2000/svg" version="1.1" width="48px" height="48px" style="shape-rendering:geometricPrecision; text-rendering:geometricPrecision; image-rendering:optimizeQuality; fill-rule:evenodd; clip-rule:evenodd" xmlns:xlink="http://www.w3.org/1999/xlink">
<g><path style="opacity:0.99" fill="#0276d1" d="M 7.5,5.5 C 18.1719,5.3335 28.8385,5.50016 39.5,6C 40,6.5 40.5,7 41,7.5C 41.6667,18.1667 41.6667,28.8333 41,39.5C 40.5,40 40,40.5 39.5,41C 28.8333,41.6667 18.1667,41.6667 7.5,41C 7,40.5 6.5,40 6,39.5C 5.33333,28.8333 5.33333,18.1667 6,7.5C 6.71719,6.9558 7.21719,6.28913 7.5,5.5 Z"/></g>
<g><path style="opacity:1" fill="#edf4fa" d="M 12.5,11.5 C 16.1612,11.3501 17.1612,12.8501 15.5,16C 11.7071,16.4866 10.7071,14.9866 12.5,11.5 Z"/></g>
<g><path style="opacity:1" fill="#fefffe" d="M 11.5,18.5 C 13.1667,18.5 14.8333,18.5 16.5,18.5C 16.5,24.1667 16.5,29.8333 16.5,35.5C 14.8333,35.5 13.1667,35.5 11.5,35.5C 11.5,29.8333 11.5,24.1667 11.5,18.5 Z"/></g>
<g><path style="opacity:1" fill="#fbfdfe" d="M 19.5,18.5 C 21.7659,18.1412 23.5993,18.8078 25,20.5C 27.9253,17.9406 30.9253,17.9406 34,20.5C 35.3885,25.3722 35.8885,30.3722 35.5,35.5C 33.8333,35.5 32.1667,35.5 30.5,35.5C 30.6653,31.8183 30.4986,28.1516 30,24.5C 28.6043,22.4732 26.9376,22.1398 25,23.5C 24.5012,27.4862 24.3345,31.4862 24.5,35.5C 22.8333,35.5 21.1667,35.5 19.5,35.5C 19.5,29.8333 19.5,24.1667 19.5,18.5 Z"/></g>
</svg>
