<?xml version="1.0" standalone="no"?>
<!DOCTYPE svg PUBLIC "-//W3C//DTD SVG 20010904//EN"
 "http://www.w3.org/TR/2001/REC-SVG-20010904/DTD/svg10.dtd">
<svg version="1.0" xmlns="http://www.w3.org/2000/svg"
 width="50.000000pt" height="50.000000pt" viewBox="0 0 50.000000 50.000000"
 preserveAspectRatio="xMidYMid meet">

<g transform="translate(0.000000,50.000000) scale(0.100000,-0.100000)"
fill="#000000" stroke="none">
<path d="M62 437 c-21 -22 -22 -33 -22 -188 0 -221 -12 -209 211 -209 221 0
209 -12 209 211 0 221 12 209 -211 209 -160 0 -166 -1 -187 -23z m176 -108
l30 -40 33 40 c18 23 39 41 48 41 10 0 6 -10 -15 -32 -60 -66 -60 -59 -5 -137
l51 -71 -39 0 c-36 0 -43 5 -73 46 l-33 46 -41 -46 c-22 -25 -46 -46 -54 -46
-9 0 -3 12 16 33 74 80 72 68 20 142 l-45 65 38 0 c34 0 43 -5 69 -41z"/>
<path d="M220 278 c73 -105 95 -131 108 -127 15 5 -125 199 -144 199 -10 0 2
-24 36 -72z"/>
</g>
</svg>
